# xmcd CD database file
#
# Track frame offsets:
#	150
#	14657
#	24670
#	44737
#	57830
#	70222
#	82415
#	105250
#	121920
#	136730
#	154517
#	175067
#	187340
#
# Disc length: 2839 seconds
#
# Revision: 0
# Processed by: cddbd v1.5.2PL0 Copyright (c) Steve Scherf et al.
# Submitted via: CDex 1.51
#
DISCID=b30b150d
DTITLE=Glen Campbell - Glen Campbell
DYEAR=1995
DGENRE=Country
TTITLE0=Rhinestone Cowboy
TTITLE1=Gentle On My Mind
TTITLE2=Medley: Witchita Lineman - Galveston - Country Boy
TTITLE3=By The Time I Get To Phoenix
TTITLE4=Heartache Number Three
TTITLE5=It's Only Make Believe
TTITLE6=Blue Grass Medley: Foggy Mountain Breakdown - Orange Blossom Special
TTITLE7=Rollin' In My Sweet Baby's Arms
TTITLE8=I'm So Lonesome I Could Cry
TTITLE9=Southern Nights
TTITLE10=Amazing Grace
TTITLE11=Try A Little Kindness
TTITLE12=Mull Of Kintyre
EXTD=YEAR: 1995
EXTT0=
EXTT1=
EXTT2=
EXTT3=
EXTT4=
EXTT5=
EXTT6=
EXTT7=
EXTT8=
EXTT9=
EXTT10=
EXTT11=
EXTT12=
PLAYORDER=
